<svg width="21" height="30" viewBox="0 0 21 30" fill="none" xmlns="http://www.w3.org/2000/svg">
<path d="M11.668 11.6884C8.46589 11.8902 9.90369 16.1194 13.4438 15.8962C16.9067 15.6779 15.0798 11.4734 11.668 11.6884Z" fill="#F19021" style="fill: #F19021;"/>
<path d="M10.3164 9.07628C8.27602 9.07628 6.28145 9.68986 4.58492 10.8394C2.8884 11.989 1.56612 13.6229 0.785292 15.5346C0.00446753 17.4462 -0.199829 19.5497 0.198232 21.5791C0.596294 23.6085 1.57883 25.4727 3.02161 26.9358C4.46439 28.3989 6.3026 29.3953 8.30379 29.799C10.305 30.2026 12.3793 29.9955 14.2643 29.2036C16.1494 28.4118 17.7606 27.0709 18.8942 25.3504C20.0278 23.63 20.6328 21.6073 20.6328 19.5381C20.6328 16.7635 19.5459 14.1025 17.6112 12.1405C15.6765 10.1785 13.0525 9.07628 10.3164 9.07628ZM10.3164 28.9036C8.49027 28.9039 6.70505 28.355 5.18651 27.3264C3.66798 26.2978 2.48433 24.8356 1.78528 23.1248C1.08622 21.414 0.903151 19.5313 1.25922 17.715C1.61528 15.8987 2.49449 14.2302 3.78566 12.9206C5.07682 11.611 6.72194 10.7191 8.51297 10.3577C10.304 9.99628 12.1605 10.1816 13.8477 10.8902C15.5348 11.5988 16.9769 12.7989 17.9915 14.3387C19.006 15.8784 19.5476 17.6887 19.5476 19.5406C19.5476 22.0235 18.5751 24.4048 16.8439 26.1606C15.1128 27.9165 12.7648 28.9031 10.3164 28.9036ZM10.0053 1.77275C7.55617 3.65012 7.98182 6.52919 7.98182 6.52919C7.98182 6.52919 6.44248 2.47707 4.44337 0C4.17368 3.18881 5.15902 7.41392 5.15902 7.41392C5.15902 7.41392 3.90724 4.79433 0.839939 4.6477C3.38411 6.13048 4.37108 8.80197 4.5969 9.51864C6.11305 8.56957 7.8469 8.03751 9.62757 7.9749C9.42693 7.30765 8.71372 4.49613 10.0053 1.77275Z" fill="#F19021" style="fill: #F19021;" />
</svg>
