<svg width="12" height="8" viewBox="0 0 12 8" fill="none" xmlns="http://www.w3.org/2000/svg">
<path d="M6.46789 7.28878L11.8073 2.16667C11.9358 2.04345 12 1.89384 12 1.71782C12 1.5418 11.9358 1.39219 11.8073 1.26898L11.2018 0.688119C11.0734 0.564906 10.9174 0.5033 10.7339 0.5033C10.5505 0.485699 10.3945 0.538504 10.2661 0.661716L6 4.75413L1.73394 0.661717C1.6055 0.538505 1.44954 0.485699 1.26605 0.503301C1.08257 0.503301 0.926606 0.564907 0.798165 0.688119L0.192661 1.26898C0.0642209 1.39219 -1.53879e-08 1.54181 0 1.71782C1.53879e-08 1.89384 0.064221 2.04346 0.192661 2.16667L5.53211 7.28878C5.66055 7.42959 5.81651 7.5 6 7.5C6.18349 7.5 6.33945 7.42959 6.46789 7.28878Z" fill="white"/>
</svg>
